# xmcd CD database file
#
# Track frame offsets:
#	150
#	17835
#	38365
#	58144
#	76802
#	95732
#	111978
#	130302
#	148024
#	166045
#	186057
#	210608
#	228720
#
# Disc length: 3535 seconds
#
# Revision: 0
# Processed by: cddbd v1.5.2PL0 Copyright (c) Steve Scherf et al.
# Submitted via: CDex 1.70beta2
#
DISCID=ae0dcd0d
DTITLE=JOAN ARMATRADING - Into The Blues
DYEAR=2007
DGENRE=Blues
TTITLE0=A Woman In Love
TTITLE1=Play The Blues
TTITLE2=Into The Blues
TTITLE3=Liza
TTITLE4=Secular Songs
TTITLE5=My Baby's Gone
TTITLE6=D.N.A.
TTITLE7=Baby Blue Eyes
TTITLE8=Deep Down
TTITLE9=There Ain't A Girl Alive
TTITLE10=Empty Highway
TTITLE11=Mama Papa
TTITLE12=Something's Gotta Blow
EXTD=YEAR: 2007
EXTT0=
EXTT1=
EXTT2=
EXTT3=
EXTT4=
EXTT5=
EXTT6=
EXTT7=
EXTT8=
EXTT9=
EXTT10=
EXTT11=
EXTT12=
PLAYORDER=
